<svg width="98" height="25" viewBox="0 0 98 25" fill="none" xmlns="http://www.w3.org/2000/svg">
<path d="M0.212097 12.6353L12.1941 24.6173L24.2121 12.5993L12.2301 0.617325L0.212097 12.6353ZM12.2038 18.1276L6.70185 12.6256L17.7223 12.6091L12.2038 18.1276Z" fill="#E1E2E8"/>
<path d="M34.0847 9.73763V21.0279H30.7022V9.73763H34.0847ZM34.1761 6.49227C34.1761 7.45216 33.399 8.20637 32.3706 8.20637C31.3878 8.20637 30.5879 7.45216 30.5879 6.49227C30.5879 5.55522 31.3878 4.82387 32.3706 4.82387C33.399 4.82387 34.1761 5.55522 34.1761 6.49227ZM46.4807 14.5828V21.0279H43.0982V14.5828C43.0982 12.8687 42.6411 12.1145 41.3156 12.1145C39.9443 12.1145 39.1444 12.8687 39.1444 14.5828V21.0279H35.7619V9.73763H39.1444V10.8118C40.0128 9.96618 41.2013 9.57765 42.184 9.57765C45.3608 9.57765 46.4807 11.1089 46.4807 14.5828ZM55.7228 21.0279L52.0661 16.3884C51.9747 16.4798 51.8147 16.594 51.6776 16.7083V21.0279H48.2722V4.43534H51.6776V12.5716L54.9229 9.73763H59.9738L54.5115 14.3086C56.1799 16.3655 58.374 19.0395 59.9738 21.0279H55.7228ZM64.9421 16.2284C64.9421 17.0511 64.9192 18.4224 66.1763 18.4224C66.7933 18.4224 67.1819 18.171 67.6161 17.8511V20.6393C67.0904 20.9364 66.4505 21.2107 65.7649 21.2107C62.8623 21.2107 61.5596 19.9765 61.5596 16.2284V12.5259H60.3026V9.73763H61.5596V6.49227H64.9421V9.73763H67.6161V12.5259H64.9421V16.2284ZM72.3101 13.0744L69.7961 11.6346C71.0531 10.2176 72.7444 9.5548 74.5042 9.5548C77.8867 9.5548 79.2579 11.406 79.2579 13.143V21.0279H75.8755V20.2279C75.3498 20.7765 74.4128 21.1878 73.3614 21.1878C70.276 21.1878 69.0876 19.8166 69.0876 17.7139C69.0876 15.337 71.0074 13.7372 74.1156 13.7372H75.8755C75.8755 12.8916 75.2355 12.3431 74.2756 12.3431C73.2929 12.3431 72.8129 12.5259 72.3101 13.0744ZM75.8755 17.3025V16.2969H73.8871C72.9958 16.2969 72.333 16.914 72.4701 17.7825C72.5615 18.3996 73.11 18.651 73.8871 18.651C75.3727 18.651 75.8755 17.8053 75.8755 17.3025ZM84.5005 4.02396V21.0279H81.0951V4.02396H84.5005ZM97.7879 15.4056V16.1598H89.743C89.743 17.4854 91.0915 18.4224 92.2113 18.4224C93.3084 18.4224 94.314 17.9882 94.8396 17.0283L97.1022 19.1081C96.1881 20.3422 94.7939 21.2107 92.2113 21.2107C88.5089 21.2107 86.2463 18.7424 86.2463 15.4056C86.2463 12.0688 88.4403 9.57765 92.0056 9.57765C95.571 9.57765 97.7879 12.0231 97.7879 15.4056ZM89.8116 14.0115H94.2454C94.0626 12.9373 93.2855 12.3659 92.0056 12.3659C90.7715 12.3659 90.0173 13.0287 89.8116 14.0115Z" fill="#E1E2E8"/>
</svg>
